<svg xmlns="http://www.w3.org/2000/svg" viewBox="0 0 820 502" width="820" height="502" role="img" aria-label="Evolução do canal no YouTube">
<style>
  .fundo { fill: #ffffff; }
  .titulo { font: 600 12px system-ui, -apple-system, Segoe UI, sans-serif; fill: #1f2328; }
  .escala { font: 10px system-ui, -apple-system, Segoe UI, sans-serif; fill: #6a737d; }
  .valor  { font: 600 11px system-ui, -apple-system, Segoe UI, sans-serif; }
  .rodape { font: 10px system-ui, -apple-system, Segoe UI, sans-serif; fill: #8b949e; }
  .eixo { stroke: #d0d7de; stroke-width: 1; }
  .linha { fill: none; stroke-width: 2; stroke-linejoin: round; stroke-linecap: round; }
  .inscritos { stroke: #1f6feb; }
  .inscritos.area { fill: #1f6feb; opacity: 0.10; stroke: none; }
  .inscritos.ponto, .inscritos.valor { fill: #1f6feb; stroke: none; }
  .views { stroke: #8250df; }
  .views.area { fill: #8250df; opacity: 0.10; stroke: none; }
  .views.ponto, .views.valor { fill: #8250df; stroke: none; }
  .barra.ganho { fill: #1a7f37; }
  @media (prefers-color-scheme: dark) {
    .fundo { fill: #0d1117; }
    .titulo { fill: #e6edf3; }
    .escala, .rodape { fill: #8b949e; }
    .eixo { stroke: #30363d; }
    .inscritos { stroke: #58a6ff; }
    .inscritos.area { fill: #58a6ff; }
    .inscritos.ponto, .inscritos.valor { fill: #58a6ff; }
    .views { stroke: #bc8cff; }
    .views.area { fill: #bc8cff; }
    .views.ponto, .views.valor { fill: #bc8cff; }
    .barra.ganho { fill: #3fb950; }
  }
</style>
<rect class="fundo" width="820" height="502" rx="6" />
<text class="titulo" x="62" y="24.0">Inscritos</text>
<line class="eixo" x1="62" y1="142.0" x2="802" y2="142.0" />
<text class="escala" x="54" y="38.0" text-anchor="end">127</text>
<text class="escala" x="54" y="142.0" text-anchor="end">119</text>
<polygon class="area inscritos" points="62.0,142.0 62.0,129.5 78.1,115.7 94.2,115.7 110.3,115.7 126.3,101.8 142.4,101.8 158.5,101.8 174.6,101.8 190.7,101.8 206.8,101.8 222.9,101.8 239.0,101.8 255.0,101.8 271.1,101.8 287.2,101.8 303.3,101.8 319.4,101.8 335.5,101.8 351.6,101.8 367.7,101.8 383.7,101.8 399.8,101.8 415.9,101.8 432.0,101.8 448.1,88.0 464.2,88.0 480.3,88.0 496.3,88.0 512.4,88.0 528.5,88.0 544.6,74.2 560.7,74.2 576.8,74.2 592.9,74.2 609.0,74.2 625.0,74.2 641.1,74.2 657.2,74.2 673.3,74.2 689.4,74.2 705.5,74.2 721.6,74.2 737.7,74.2 753.7,74.2 769.8,101.8 785.9,46.5 802.0,46.5 802.0,142.0" />
<polyline class="linha inscritos" points="62.0,129.5 78.1,115.7 94.2,115.7 110.3,115.7 126.3,101.8 142.4,101.8 158.5,101.8 174.6,101.8 190.7,101.8 206.8,101.8 222.9,101.8 239.0,101.8 255.0,101.8 271.1,101.8 287.2,101.8 303.3,101.8 319.4,101.8 335.5,101.8 351.6,101.8 367.7,101.8 383.7,101.8 399.8,101.8 415.9,101.8 432.0,101.8 448.1,88.0 464.2,88.0 480.3,88.0 496.3,88.0 512.4,88.0 528.5,88.0 544.6,74.2 560.7,74.2 576.8,74.2 592.9,74.2 609.0,74.2 625.0,74.2 641.1,74.2 657.2,74.2 673.3,74.2 689.4,74.2 705.5,74.2 721.6,74.2 737.7,74.2 753.7,74.2 769.8,101.8 785.9,46.5 802.0,46.5" />
<circle class="ponto inscritos" cx="62.0" cy="129.5" r="2.6" />
<circle class="ponto inscritos" cx="78.1" cy="115.7" r="2.6" />
<circle class="ponto inscritos" cx="94.2" cy="115.7" r="2.6" />
<circle class="ponto inscritos" cx="110.3" cy="115.7" r="2.6" />
<circle class="ponto inscritos" cx="126.3" cy="101.8" r="2.6" />
<circle class="ponto inscritos" cx="142.4" cy="101.8" r="2.6" />
<circle class="ponto inscritos" cx="158.5" cy="101.8" r="2.6" />
<circle class="ponto inscritos" cx="174.6" cy="101.8" r="2.6" />
<circle class="ponto inscritos" cx="190.7" cy="101.8" r="2.6" />
<circle class="ponto inscritos" cx="206.8" cy="101.8" r="2.6" />
<circle class="ponto inscritos" cx="222.9" cy="101.8" r="2.6" />
<circle class="ponto inscritos" cx="239.0" cy="101.8" r="2.6" />
<circle class="ponto inscritos" cx="255.0" cy="101.8" r="2.6" />
<circle class="ponto inscritos" cx="271.1" cy="101.8" r="2.6" />
<circle class="ponto inscritos" cx="287.2" cy="101.8" r="2.6" />
<circle class="ponto inscritos" cx="303.3" cy="101.8" r="2.6" />
<circle class="ponto inscritos" cx="319.4" cy="101.8" r="2.6" />
<circle class="ponto inscritos" cx="335.5" cy="101.8" r="2.6" />
<circle class="ponto inscritos" cx="351.6" cy="101.8" r="2.6" />
<circle class="ponto inscritos" cx="367.7" cy="101.8" r="2.6" />
<circle class="ponto inscritos" cx="383.7" cy="101.8" r="2.6" />
<circle class="ponto inscritos" cx="399.8" cy="101.8" r="2.6" />
<circle class="ponto inscritos" cx="415.9" cy="101.8" r="2.6" />
<circle class="ponto inscritos" cx="432.0" cy="101.8" r="2.6" />
<circle class="ponto inscritos" cx="448.1" cy="88.0" r="2.6" />
<circle class="ponto inscritos" cx="464.2" cy="88.0" r="2.6" />
<circle class="ponto inscritos" cx="480.3" cy="88.0" r="2.6" />
<circle class="ponto inscritos" cx="496.3" cy="88.0" r="2.6" />
<circle class="ponto inscritos" cx="512.4" cy="88.0" r="2.6" />
<circle class="ponto inscritos" cx="528.5" cy="88.0" r="2.6" />
<circle class="ponto inscritos" cx="544.6" cy="74.2" r="2.6" />
<circle class="ponto inscritos" cx="560.7" cy="74.2" r="2.6" />
<circle class="ponto inscritos" cx="576.8" cy="74.2" r="2.6" />
<circle class="ponto inscritos" cx="592.9" cy="74.2" r="2.6" />
<circle class="ponto inscritos" cx="609.0" cy="74.2" r="2.6" />
<circle class="ponto inscritos" cx="625.0" cy="74.2" r="2.6" />
<circle class="ponto inscritos" cx="641.1" cy="74.2" r="2.6" />
<circle class="ponto inscritos" cx="657.2" cy="74.2" r="2.6" />
<circle class="ponto inscritos" cx="673.3" cy="74.2" r="2.6" />
<circle class="ponto inscritos" cx="689.4" cy="74.2" r="2.6" />
<circle class="ponto inscritos" cx="705.5" cy="74.2" r="2.6" />
<circle class="ponto inscritos" cx="721.6" cy="74.2" r="2.6" />
<circle class="ponto inscritos" cx="737.7" cy="74.2" r="2.6" />
<circle class="ponto inscritos" cx="753.7" cy="74.2" r="2.6" />
<circle class="ponto inscritos" cx="769.8" cy="101.8" r="2.6" />
<circle class="ponto inscritos" cx="785.9" cy="46.5" r="2.6" />
<circle class="ponto inscritos" cx="802.0" cy="46.5" r="2.6" />
<text class="valor inscritos" x="802.0" y="37.5" text-anchor="end">126</text>
<text class="escala" x="62.0" y="157.0" text-anchor="middle">05/08</text>
<text class="escala" x="142.4" y="157.0" text-anchor="middle">11/08</text>
<text class="escala" x="222.9" y="157.0" text-anchor="middle">16/08</text>
<text class="escala" x="303.3" y="157.0" text-anchor="middle">22/08</text>
<text class="escala" x="383.7" y="157.0" text-anchor="middle">27/08</text>
<text class="escala" x="464.2" y="157.0" text-anchor="middle">01/09</text>
<text class="escala" x="544.6" y="157.0" text-anchor="middle">06/09</text>
<text class="escala" x="625.0" y="157.0" text-anchor="middle">11/09</text>
<text class="escala" x="705.5" y="157.0" text-anchor="middle">16/09</text>
<text class="escala" x="785.9" y="157.0" text-anchor="middle">21/09</text>
<text class="escala" x="802.0" y="157.0" text-anchor="middle">22/09</text>
<text class="titulo" x="62" y="178.0">Visualizações totais</text>
<line class="eixo" x1="62" y1="296.0" x2="802" y2="296.0" />
<text class="escala" x="54" y="192.0" text-anchor="end">40.497</text>
<text class="escala" x="54" y="296.0" text-anchor="end">38.815</text>
<polygon class="area views" points="62.0,296.0 62.0,283.5 78.1,283.4 94.2,283.3 110.3,283.2 126.3,280.3 142.4,279.8 158.5,279.4 174.6,279.2 190.7,279.2 206.8,278.7 222.9,277.7 239.0,277.7 255.0,276.3 271.1,276.0 287.2,275.9 303.3,274.9 319.4,274.4 335.5,274.4 351.6,274.5 367.7,274.0 383.7,274.0 399.8,273.9 415.9,272.6 432.0,272.3 448.1,266.1 464.2,264.8 480.3,261.9 496.3,260.8 512.4,260.8 528.5,258.8 544.6,258.2 560.7,258.1 576.8,257.4 592.9,257.2 609.0,230.8 625.0,229.4 641.1,228.1 657.2,227.2 673.3,227.0 689.4,226.8 705.5,225.6 721.6,224.0 737.7,222.0 753.7,222.6 769.8,221.3 785.9,217.2 802.0,200.5 802.0,296.0" />
<polyline class="linha views" points="62.0,283.5 78.1,283.4 94.2,283.3 110.3,283.2 126.3,280.3 142.4,279.8 158.5,279.4 174.6,279.2 190.7,279.2 206.8,278.7 222.9,277.7 239.0,277.7 255.0,276.3 271.1,276.0 287.2,275.9 303.3,274.9 319.4,274.4 335.5,274.4 351.6,274.5 367.7,274.0 383.7,274.0 399.8,273.9 415.9,272.6 432.0,272.3 448.1,266.1 464.2,264.8 480.3,261.9 496.3,260.8 512.4,260.8 528.5,258.8 544.6,258.2 560.7,258.1 576.8,257.4 592.9,257.2 609.0,230.8 625.0,229.4 641.1,228.1 657.2,227.2 673.3,227.0 689.4,226.8 705.5,225.6 721.6,224.0 737.7,222.0 753.7,222.6 769.8,221.3 785.9,217.2 802.0,200.5" />
<circle class="ponto views" cx="62.0" cy="283.5" r="2.6" />
<circle class="ponto views" cx="78.1" cy="283.4" r="2.6" />
<circle class="ponto views" cx="94.2" cy="283.3" r="2.6" />
<circle class="ponto views" cx="110.3" cy="283.2" r="2.6" />
<circle class="ponto views" cx="126.3" cy="280.3" r="2.6" />
<circle class="ponto views" cx="142.4" cy="279.8" r="2.6" />
<circle class="ponto views" cx="158.5" cy="279.4" r="2.6" />
<circle class="ponto views" cx="174.6" cy="279.2" r="2.6" />
<circle class="ponto views" cx="190.7" cy="279.2" r="2.6" />
<circle class="ponto views" cx="206.8" cy="278.7" r="2.6" />
<circle class="ponto views" cx="222.9" cy="277.7" r="2.6" />
<circle class="ponto views" cx="239.0" cy="277.7" r="2.6" />
<circle class="ponto views" cx="255.0" cy="276.3" r="2.6" />
<circle class="ponto views" cx="271.1" cy="276.0" r="2.6" />
<circle class="ponto views" cx="287.2" cy="275.9" r="2.6" />
<circle class="ponto views" cx="303.3" cy="274.9" r="2.6" />
<circle class="ponto views" cx="319.4" cy="274.4" r="2.6" />
<circle class="ponto views" cx="335.5" cy="274.4" r="2.6" />
<circle class="ponto views" cx="351.6" cy="274.5" r="2.6" />
<circle class="ponto views" cx="367.7" cy="274.0" r="2.6" />
<circle class="ponto views" cx="383.7" cy="274.0" r="2.6" />
<circle class="ponto views" cx="399.8" cy="273.9" r="2.6" />
<circle class="ponto views" cx="415.9" cy="272.6" r="2.6" />
<circle class="ponto views" cx="432.0" cy="272.3" r="2.6" />
<circle class="ponto views" cx="448.1" cy="266.1" r="2.6" />
<circle class="ponto views" cx="464.2" cy="264.8" r="2.6" />
<circle class="ponto views" cx="480.3" cy="261.9" r="2.6" />
<circle class="ponto views" cx="496.3" cy="260.8" r="2.6" />
<circle class="ponto views" cx="512.4" cy="260.8" r="2.6" />
<circle class="ponto views" cx="528.5" cy="258.8" r="2.6" />
<circle class="ponto views" cx="544.6" cy="258.2" r="2.6" />
<circle class="ponto views" cx="560.7" cy="258.1" r="2.6" />
<circle class="ponto views" cx="576.8" cy="257.4" r="2.6" />
<circle class="ponto views" cx="592.9" cy="257.2" r="2.6" />
<circle class="ponto views" cx="609.0" cy="230.8" r="2.6" />
<circle class="ponto views" cx="625.0" cy="229.4" r="2.6" />
<circle class="ponto views" cx="641.1" cy="228.1" r="2.6" />
<circle class="ponto views" cx="657.2" cy="227.2" r="2.6" />
<circle class="ponto views" cx="673.3" cy="227.0" r="2.6" />
<circle class="ponto views" cx="689.4" cy="226.8" r="2.6" />
<circle class="ponto views" cx="705.5" cy="225.6" r="2.6" />
<circle class="ponto views" cx="721.6" cy="224.0" r="2.6" />
<circle class="ponto views" cx="737.7" cy="222.0" r="2.6" />
<circle class="ponto views" cx="753.7" cy="222.6" r="2.6" />
<circle class="ponto views" cx="769.8" cy="221.3" r="2.6" />
<circle class="ponto views" cx="785.9" cy="217.2" r="2.6" />
<circle class="ponto views" cx="802.0" cy="200.5" r="2.6" />
<text class="valor views" x="802.0" y="191.5" text-anchor="end">40.303</text>
<text class="escala" x="62.0" y="311.0" text-anchor="middle">05/08</text>
<text class="escala" x="142.4" y="311.0" text-anchor="middle">11/08</text>
<text class="escala" x="222.9" y="311.0" text-anchor="middle">16/08</text>
<text class="escala" x="303.3" y="311.0" text-anchor="middle">22/08</text>
<text class="escala" x="383.7" y="311.0" text-anchor="middle">27/08</text>
<text class="escala" x="464.2" y="311.0" text-anchor="middle">01/09</text>
<text class="escala" x="544.6" y="311.0" text-anchor="middle">06/09</text>
<text class="escala" x="625.0" y="311.0" text-anchor="middle">11/09</text>
<text class="escala" x="705.5" y="311.0" text-anchor="middle">16/09</text>
<text class="escala" x="785.9" y="311.0" text-anchor="middle">21/09</text>
<text class="escala" x="802.0" y="311.0" text-anchor="middle">22/09</text>
<text class="titulo" x="62" y="332.0">Visualizações ganhas por dia</text>
<line class="eixo" x1="62" y1="447.4" x2="802" y2="447.4" />
<text class="escala" x="54" y="346.0" text-anchor="end">412</text>
<rect class="barra ganho" x="57.2" y="447.2" width="9.7" height="1.0" rx="2" />
<rect class="barra ganho" x="73.6" y="446.9" width="9.7" height="1.0" rx="2" />
<rect class="barra ganho" x="90.1" y="447.2" width="9.7" height="1.0" rx="2" />
<rect class="barra ganho" x="106.5" y="435.7" width="9.7" height="11.8" rx="2" />
<rect class="barra ganho" x="123.0" y="445.6" width="9.7" height="1.8" rx="2" />
<rect class="barra ganho" x="139.4" y="445.6" width="9.7" height="1.8" rx="2" />
<rect class="barra ganho" x="155.8" y="446.7" width="9.7" height="1.0" rx="2" />
<rect class="barra ganho" x="172.3" y="447.4" width="9.7" height="1.0" rx="2" />
<rect class="barra ganho" x="188.7" y="445.6" width="9.7" height="1.8" rx="2" />
<rect class="barra ganho" x="205.2" y="443.3" width="9.7" height="4.1" rx="2" />
<rect class="barra ganho" x="221.6" y="447.4" width="9.7" height="1.0" rx="2" />
<rect class="barra ganho" x="238.1" y="441.8" width="9.7" height="5.6" rx="2" />
<rect class="barra ganho" x="254.5" y="446.8" width="9.7" height="1.0" rx="2" />
<rect class="barra ganho" x="271.0" y="447.2" width="9.7" height="1.0" rx="2" />
<rect class="barra ganho" x="287.4" y="443.6" width="9.7" height="3.8" rx="2" />
<rect class="barra ganho" x="303.8" y="445.1" width="9.7" height="2.3" rx="2" />
<rect class="barra ganho" x="320.3" y="447.4" width="9.7" height="1.0" rx="2" />
<rect class="barra ganho" x="336.7" y="447.4" width="9.7" height="1.0" rx="2" />
<rect class="barra ganho" x="353.2" y="445.6" width="9.7" height="1.8" rx="2" />
<rect class="barra ganho" x="369.6" y="447.2" width="9.7" height="1.0" rx="2" />
<rect class="barra ganho" x="386.1" y="447.2" width="9.7" height="1.0" rx="2" />
<rect class="barra ganho" x="402.5" y="442.1" width="9.7" height="5.4" rx="2" />
<rect class="barra ganho" x="419.0" y="446.4" width="9.7" height="1.0" rx="2" />
<rect class="barra ganho" x="435.4" y="422.6" width="9.7" height="24.8" rx="2" />
<rect class="barra ganho" x="451.8" y="442.3" width="9.7" height="5.1" rx="2" />
<rect class="barra ganho" x="468.3" y="435.9" width="9.7" height="11.5" rx="2" />
<rect class="barra ganho" x="484.7" y="443.1" width="9.7" height="4.4" rx="2" />
<rect class="barra ganho" x="501.2" y="447.4" width="9.7" height="1.0" rx="2" />
<rect class="barra ganho" x="517.6" y="439.3" width="9.7" height="8.2" rx="2" />
<rect class="barra ganho" x="534.1" y="445.4" width="9.7" height="2.0" rx="2" />
<rect class="barra ganho" x="550.5" y="446.9" width="9.7" height="1.0" rx="2" />
<rect class="barra ganho" x="567.0" y="444.6" width="9.7" height="2.8" rx="2" />
<rect class="barra ganho" x="583.4" y="446.7" width="9.7" height="1.0" rx="2" />
<rect class="barra ganho" x="599.8" y="342.0" width="9.7" height="105.4" rx="2" />
<rect class="barra ganho" x="616.3" y="441.8" width="9.7" height="5.6" rx="2" />
<rect class="barra ganho" x="632.7" y="442.3" width="9.7" height="5.1" rx="2" />
<rect class="barra ganho" x="649.2" y="443.9" width="9.7" height="3.6" rx="2" />
<rect class="barra ganho" x="665.6" y="446.7" width="9.7" height="1.0" rx="2" />
<rect class="barra ganho" x="682.1" y="446.9" width="9.7" height="1.0" rx="2" />
<rect class="barra ganho" x="698.5" y="442.6" width="9.7" height="4.9" rx="2" />
<rect class="barra ganho" x="715.0" y="440.8" width="9.7" height="6.7" rx="2" />
<rect class="barra ganho" x="731.4" y="439.5" width="9.7" height="7.9" rx="2" />
<rect class="barra ganho" x="747.8" y="447.4" width="9.7" height="2.6" rx="2" />
<rect class="barra ganho" x="764.3" y="442.3" width="9.7" height="5.1" rx="2" />
<rect class="barra ganho" x="780.7" y="431.1" width="9.7" height="16.4" rx="2" />
<rect class="barra ganho" x="797.2" y="380.6" width="9.7" height="66.8" rx="2" />
<text class="escala" x="62.0" y="465.0" text-anchor="middle">07/08</text>
<text class="escala" x="144.2" y="465.0" text-anchor="middle">12/08</text>
<text class="escala" x="226.4" y="465.0" text-anchor="middle">17/08</text>
<text class="escala" x="308.7" y="465.0" text-anchor="middle">23/08</text>
<text class="escala" x="390.9" y="465.0" text-anchor="middle">28/08</text>
<text class="escala" x="473.1" y="465.0" text-anchor="middle">02/09</text>
<text class="escala" x="555.3" y="465.0" text-anchor="middle">07/09</text>
<text class="escala" x="637.6" y="465.0" text-anchor="middle">12/09</text>
<text class="escala" x="719.8" y="465.0" text-anchor="middle">17/09</text>
<text class="escala" x="802.0" y="465.0" text-anchor="middle">22/09</text>
<text class="rodape" x="802" y="494" text-anchor="end">Atualizado em 22/09/2026</text>
</svg>
