<svg xmlns="http://www.w3.org/2000/svg" viewBox="0 0 820 502" width="820" height="502" role="img" aria-label="Evolução do canal no YouTube">
<style>
  .fundo { fill: #ffffff; }
  .titulo { font: 600 12px system-ui, -apple-system, Segoe UI, sans-serif; fill: #1f2328; }
  .escala { font: 10px system-ui, -apple-system, Segoe UI, sans-serif; fill: #6a737d; }
  .valor  { font: 600 11px system-ui, -apple-system, Segoe UI, sans-serif; }
  .rodape { font: 10px system-ui, -apple-system, Segoe UI, sans-serif; fill: #8b949e; }
  .eixo { stroke: #d0d7de; stroke-width: 1; }
  .linha { fill: none; stroke-width: 2; stroke-linejoin: round; stroke-linecap: round; }
  .inscritos { stroke: #1f6feb; }
  .inscritos.area { fill: #1f6feb; opacity: 0.10; stroke: none; }
  .inscritos.ponto, .inscritos.valor { fill: #1f6feb; stroke: none; }
  .views { stroke: #8250df; }
  .views.area { fill: #8250df; opacity: 0.10; stroke: none; }
  .views.ponto, .views.valor { fill: #8250df; stroke: none; }
  .barra.ganho { fill: #1a7f37; }
  @media (prefers-color-scheme: dark) {
    .fundo { fill: #0d1117; }
    .titulo { fill: #e6edf3; }
    .escala, .rodape { fill: #8b949e; }
    .eixo { stroke: #30363d; }
    .inscritos { stroke: #58a6ff; }
    .inscritos.area { fill: #58a6ff; }
    .inscritos.ponto, .inscritos.valor { fill: #58a6ff; }
    .views { stroke: #bc8cff; }
    .views.area { fill: #bc8cff; }
    .views.ponto, .views.valor { fill: #bc8cff; }
    .barra.ganho { fill: #3fb950; }
  }
</style>
<rect class="fundo" width="820" height="502" rx="6" />
<text class="titulo" x="62" y="24.0">Inscritos</text>
<line class="eixo" x1="62" y1="142.0" x2="802" y2="142.0" />
<text class="escala" x="54" y="38.0" text-anchor="end">123</text>
<text class="escala" x="54" y="142.0" text-anchor="end">120</text>
<polygon class="area inscritos" points="62.0,142.0 62.0,129.5 87.5,101.8 113.0,101.8 138.6,101.8 164.1,74.2 189.6,74.2 215.1,74.2 240.6,74.2 266.1,74.2 291.7,74.2 317.2,74.2 342.7,74.2 368.2,74.2 393.7,74.2 419.2,74.2 444.8,74.2 470.3,74.2 495.8,74.2 521.3,74.2 546.8,74.2 572.3,74.2 597.9,74.2 623.4,74.2 648.9,74.2 674.4,46.5 699.9,46.5 725.4,46.5 751.0,46.5 776.5,46.5 802.0,46.5 802.0,142.0" />
<polyline class="linha inscritos" points="62.0,129.5 87.5,101.8 113.0,101.8 138.6,101.8 164.1,74.2 189.6,74.2 215.1,74.2 240.6,74.2 266.1,74.2 291.7,74.2 317.2,74.2 342.7,74.2 368.2,74.2 393.7,74.2 419.2,74.2 444.8,74.2 470.3,74.2 495.8,74.2 521.3,74.2 546.8,74.2 572.3,74.2 597.9,74.2 623.4,74.2 648.9,74.2 674.4,46.5 699.9,46.5 725.4,46.5 751.0,46.5 776.5,46.5 802.0,46.5" />
<circle class="ponto inscritos" cx="62.0" cy="129.5" r="2.6" />
<circle class="ponto inscritos" cx="87.5" cy="101.8" r="2.6" />
<circle class="ponto inscritos" cx="113.0" cy="101.8" r="2.6" />
<circle class="ponto inscritos" cx="138.6" cy="101.8" r="2.6" />
<circle class="ponto inscritos" cx="164.1" cy="74.2" r="2.6" />
<circle class="ponto inscritos" cx="189.6" cy="74.2" r="2.6" />
<circle class="ponto inscritos" cx="215.1" cy="74.2" r="2.6" />
<circle class="ponto inscritos" cx="240.6" cy="74.2" r="2.6" />
<circle class="ponto inscritos" cx="266.1" cy="74.2" r="2.6" />
<circle class="ponto inscritos" cx="291.7" cy="74.2" r="2.6" />
<circle class="ponto inscritos" cx="317.2" cy="74.2" r="2.6" />
<circle class="ponto inscritos" cx="342.7" cy="74.2" r="2.6" />
<circle class="ponto inscritos" cx="368.2" cy="74.2" r="2.6" />
<circle class="ponto inscritos" cx="393.7" cy="74.2" r="2.6" />
<circle class="ponto inscritos" cx="419.2" cy="74.2" r="2.6" />
<circle class="ponto inscritos" cx="444.8" cy="74.2" r="2.6" />
<circle class="ponto inscritos" cx="470.3" cy="74.2" r="2.6" />
<circle class="ponto inscritos" cx="495.8" cy="74.2" r="2.6" />
<circle class="ponto inscritos" cx="521.3" cy="74.2" r="2.6" />
<circle class="ponto inscritos" cx="546.8" cy="74.2" r="2.6" />
<circle class="ponto inscritos" cx="572.3" cy="74.2" r="2.6" />
<circle class="ponto inscritos" cx="597.9" cy="74.2" r="2.6" />
<circle class="ponto inscritos" cx="623.4" cy="74.2" r="2.6" />
<circle class="ponto inscritos" cx="648.9" cy="74.2" r="2.6" />
<circle class="ponto inscritos" cx="674.4" cy="46.5" r="2.6" />
<circle class="ponto inscritos" cx="699.9" cy="46.5" r="2.6" />
<circle class="ponto inscritos" cx="725.4" cy="46.5" r="2.6" />
<circle class="ponto inscritos" cx="751.0" cy="46.5" r="2.6" />
<circle class="ponto inscritos" cx="776.5" cy="46.5" r="2.6" />
<circle class="ponto inscritos" cx="802.0" cy="46.5" r="2.6" />
<text class="valor inscritos" x="802.0" y="37.5" text-anchor="end">123</text>
<text class="escala" x="62.0" y="157.0" text-anchor="middle">05/08</text>
<text class="escala" x="138.6" y="157.0" text-anchor="middle">09/08</text>
<text class="escala" x="215.1" y="157.0" text-anchor="middle">12/08</text>
<text class="escala" x="291.7" y="157.0" text-anchor="middle">15/08</text>
<text class="escala" x="368.2" y="157.0" text-anchor="middle">18/08</text>
<text class="escala" x="444.8" y="157.0" text-anchor="middle">22/08</text>
<text class="escala" x="521.3" y="157.0" text-anchor="middle">25/08</text>
<text class="escala" x="597.9" y="157.0" text-anchor="middle">28/08</text>
<text class="escala" x="674.4" y="157.0" text-anchor="middle">31/08</text>
<text class="escala" x="751.0" y="157.0" text-anchor="middle">03/09</text>
<text class="escala" x="802.0" y="157.0" text-anchor="middle">05/09</text>
<text class="titulo" x="62" y="178.0">Visualizações totais</text>
<line class="eixo" x1="62" y1="296.0" x2="802" y2="296.0" />
<text class="escala" x="54" y="192.0" text-anchor="end">39.453</text>
<text class="escala" x="54" y="296.0" text-anchor="end">38.951</text>
<polygon class="area views" points="62.0,296.0 62.0,283.5 87.5,283.1 113.0,282.7 138.6,282.5 164.1,272.6 189.6,271.1 215.1,269.5 240.6,268.9 266.1,268.9 291.7,267.4 317.2,264.0 342.7,264.0 368.2,259.2 393.7,258.1 419.2,257.9 444.8,254.7 470.3,252.8 495.8,252.8 521.3,253.2 546.8,251.7 572.3,251.5 597.9,251.3 623.4,246.7 648.9,245.9 674.4,225.0 699.9,220.7 725.4,211.0 751.0,207.3 776.5,207.3 802.0,200.5 802.0,296.0" />
<polyline class="linha views" points="62.0,283.5 87.5,283.1 113.0,282.7 138.6,282.5 164.1,272.6 189.6,271.1 215.1,269.5 240.6,268.9 266.1,268.9 291.7,267.4 317.2,264.0 342.7,264.0 368.2,259.2 393.7,258.1 419.2,257.9 444.8,254.7 470.3,252.8 495.8,252.8 521.3,253.2 546.8,251.7 572.3,251.5 597.9,251.3 623.4,246.7 648.9,245.9 674.4,225.0 699.9,220.7 725.4,211.0 751.0,207.3 776.5,207.3 802.0,200.5" />
<circle class="ponto views" cx="62.0" cy="283.5" r="2.6" />
<circle class="ponto views" cx="87.5" cy="283.1" r="2.6" />
<circle class="ponto views" cx="113.0" cy="282.7" r="2.6" />
<circle class="ponto views" cx="138.6" cy="282.5" r="2.6" />
<circle class="ponto views" cx="164.1" cy="272.6" r="2.6" />
<circle class="ponto views" cx="189.6" cy="271.1" r="2.6" />
<circle class="ponto views" cx="215.1" cy="269.5" r="2.6" />
<circle class="ponto views" cx="240.6" cy="268.9" r="2.6" />
<circle class="ponto views" cx="266.1" cy="268.9" r="2.6" />
<circle class="ponto views" cx="291.7" cy="267.4" r="2.6" />
<circle class="ponto views" cx="317.2" cy="264.0" r="2.6" />
<circle class="ponto views" cx="342.7" cy="264.0" r="2.6" />
<circle class="ponto views" cx="368.2" cy="259.2" r="2.6" />
<circle class="ponto views" cx="393.7" cy="258.1" r="2.6" />
<circle class="ponto views" cx="419.2" cy="257.9" r="2.6" />
<circle class="ponto views" cx="444.8" cy="254.7" r="2.6" />
<circle class="ponto views" cx="470.3" cy="252.8" r="2.6" />
<circle class="ponto views" cx="495.8" cy="252.8" r="2.6" />
<circle class="ponto views" cx="521.3" cy="253.2" r="2.6" />
<circle class="ponto views" cx="546.8" cy="251.7" r="2.6" />
<circle class="ponto views" cx="572.3" cy="251.5" r="2.6" />
<circle class="ponto views" cx="597.9" cy="251.3" r="2.6" />
<circle class="ponto views" cx="623.4" cy="246.7" r="2.6" />
<circle class="ponto views" cx="648.9" cy="245.9" r="2.6" />
<circle class="ponto views" cx="674.4" cy="225.0" r="2.6" />
<circle class="ponto views" cx="699.9" cy="220.7" r="2.6" />
<circle class="ponto views" cx="725.4" cy="211.0" r="2.6" />
<circle class="ponto views" cx="751.0" cy="207.3" r="2.6" />
<circle class="ponto views" cx="776.5" cy="207.3" r="2.6" />
<circle class="ponto views" cx="802.0" cy="200.5" r="2.6" />
<text class="valor views" x="802.0" y="191.5" text-anchor="end">39.395</text>
<text class="escala" x="62.0" y="311.0" text-anchor="middle">05/08</text>
<text class="escala" x="138.6" y="311.0" text-anchor="middle">09/08</text>
<text class="escala" x="215.1" y="311.0" text-anchor="middle">12/08</text>
<text class="escala" x="291.7" y="311.0" text-anchor="middle">15/08</text>
<text class="escala" x="368.2" y="311.0" text-anchor="middle">18/08</text>
<text class="escala" x="444.8" y="311.0" text-anchor="middle">22/08</text>
<text class="escala" x="521.3" y="311.0" text-anchor="middle">25/08</text>
<text class="escala" x="597.9" y="311.0" text-anchor="middle">28/08</text>
<text class="escala" x="674.4" y="311.0" text-anchor="middle">31/08</text>
<text class="escala" x="751.0" y="311.0" text-anchor="middle">03/09</text>
<text class="escala" x="802.0" y="311.0" text-anchor="middle">05/09</text>
<text class="titulo" x="62" y="332.0">Visualizações ganhas por dia</text>
<line class="eixo" x1="62" y1="447.8" x2="802" y2="447.8" />
<text class="escala" x="54" y="346.0" text-anchor="end">97</text>
<rect class="barra ganho" x="54.3" y="446.7" width="15.3" height="1.1" rx="2" />
<rect class="barra ganho" x="80.8" y="445.6" width="15.3" height="2.2" rx="2" />
<rect class="barra ganho" x="107.2" y="446.7" width="15.3" height="1.1" rx="2" />
<rect class="barra ganho" x="133.6" y="397.6" width="15.3" height="50.2" rx="2" />
<rect class="barra ganho" x="160.1" y="440.2" width="15.3" height="7.6" rx="2" />
<rect class="barra ganho" x="186.5" y="440.2" width="15.3" height="7.6" rx="2" />
<rect class="barra ganho" x="212.9" y="444.5" width="15.3" height="3.3" rx="2" />
<rect class="barra ganho" x="239.3" y="447.8" width="15.3" height="1.0" rx="2" />
<rect class="barra ganho" x="265.8" y="440.2" width="15.3" height="7.6" rx="2" />
<rect class="barra ganho" x="292.2" y="430.4" width="15.3" height="17.5" rx="2" />
<rect class="barra ganho" x="318.6" y="447.8" width="15.3" height="1.0" rx="2" />
<rect class="barra ganho" x="345.1" y="423.8" width="15.3" height="24.0" rx="2" />
<rect class="barra ganho" x="371.5" y="445.1" width="15.3" height="2.7" rx="2" />
<rect class="barra ganho" x="397.9" y="446.7" width="15.3" height="1.1" rx="2" />
<rect class="barra ganho" x="424.3" y="431.5" width="15.3" height="16.4" rx="2" />
<rect class="barra ganho" x="450.8" y="438.0" width="15.3" height="9.8" rx="2" />
<rect class="barra ganho" x="477.2" y="447.8" width="15.3" height="1.0" rx="2" />
<rect class="barra ganho" x="503.6" y="447.8" width="15.3" height="2.2" rx="2" />
<rect class="barra ganho" x="530.1" y="440.2" width="15.3" height="7.6" rx="2" />
<rect class="barra ganho" x="556.5" y="446.7" width="15.3" height="1.1" rx="2" />
<rect class="barra ganho" x="582.9" y="446.7" width="15.3" height="1.1" rx="2" />
<rect class="barra ganho" x="609.3" y="424.9" width="15.3" height="22.9" rx="2" />
<rect class="barra ganho" x="635.8" y="443.5" width="15.3" height="4.4" rx="2" />
<rect class="barra ganho" x="662.2" y="342.0" width="15.3" height="105.8" rx="2" />
<rect class="barra ganho" x="688.6" y="426.0" width="15.3" height="21.8" rx="2" />
<rect class="barra ganho" x="715.1" y="398.7" width="15.3" height="49.1" rx="2" />
<rect class="barra ganho" x="741.5" y="429.3" width="15.3" height="18.5" rx="2" />
<rect class="barra ganho" x="767.9" y="447.8" width="15.3" height="1.0" rx="2" />
<rect class="barra ganho" x="794.3" y="412.9" width="15.3" height="34.9" rx="2" />
<text class="escala" x="62.0" y="465.0" text-anchor="middle">07/08</text>
<text class="escala" x="141.3" y="465.0" text-anchor="middle">10/08</text>
<text class="escala" x="220.6" y="465.0" text-anchor="middle">13/08</text>
<text class="escala" x="299.9" y="465.0" text-anchor="middle">16/08</text>
<text class="escala" x="379.1" y="465.0" text-anchor="middle">20/08</text>
<text class="escala" x="458.4" y="465.0" text-anchor="middle">23/08</text>
<text class="escala" x="537.7" y="465.0" text-anchor="middle">26/08</text>
<text class="escala" x="617.0" y="465.0" text-anchor="middle">29/08</text>
<text class="escala" x="696.3" y="465.0" text-anchor="middle">01/09</text>
<text class="escala" x="775.6" y="465.0" text-anchor="middle">04/09</text>
<text class="escala" x="802.0" y="465.0" text-anchor="middle">05/09</text>
<text class="rodape" x="802" y="494" text-anchor="end">Atualizado em 05/09/2026</text>
</svg>
